<svg id="visual" viewBox="0 0 900 600" width="900" height="600" xmlns="http://www.w3.org/2000/svg" xmlns:xlink="http://www.w3.org/1999/xlink" version="1.1"><rect x="0" y="0" width="900" height="600" fill="#002233"></rect><path d="M0 357L21.5 367C43 377 86 397 128.8 377.5C171.7 358 214.3 299 257.2 289.8C300 280.7 343 321.3 385.8 345.7C428.7 370 471.3 378 514.2 359.3C557 340.7 600 295.3 642.8 263.3C685.7 231.3 728.3 212.7 771.2 239.3C814 266 857 338 878.5 374L900 410L900 601L878.5 601C857 601 814 601 771.2 601C728.3 601 685.7 601 642.8 601C600 601 557 601 514.2 601C471.3 601 428.7 601 385.8 601C343 601 300 601 257.2 601C214.3 601 171.7 601 128.8 601C86 601 43 601 21.5 601L0 601Z" fill="#0066FF" stroke-linecap="round" stroke-linejoin="miter"></path></svg>