<svg id="visual" viewBox="0 0 900 600" width="900" height="600" xmlns="http://www.w3.org/2000/svg" xmlns:xlink="http://www.w3.org/1999/xlink" version="1.1"><rect x="0" y="0" width="900" height="600" fill="#002233"></rect><path d="M0 409L21.5 375C43 341 86 273 128.8 243C171.7 213 214.3 221 257.2 256C300 291 343 353 385.8 377.5C428.7 402 471.3 389 514.2 377.3C557 365.7 600 355.3 642.8 340.8C685.7 326.3 728.3 307.7 771.2 318C814 328.3 857 367.7 878.5 387.3L900 407L900 601L878.5 601C857 601 814 601 771.2 601C728.3 601 685.7 601 642.8 601C600 601 557 601 514.2 601C471.3 601 428.7 601 385.8 601C343 601 300 601 257.2 601C214.3 601 171.7 601 128.8 601C86 601 43 601 21.5 601L0 601Z" fill="#0066FF" stroke-linecap="round" stroke-linejoin="miter"></path></svg>