<svg id="visual" viewBox="0 0 900 600" width="900" height="600" xmlns="http://www.w3.org/2000/svg" xmlns:xlink="http://www.w3.org/1999/xlink" version="1.1"><rect x="0" y="0" width="900" height="600" fill="#002233"></rect><path d="M0 284L25 294.3C50 304.7 100 325.3 150 326.7C200 328 250 310 300 293.7C350 277.3 400 262.7 450 256.7C500 250.7 550 253.3 600 277.2C650 301 700 346 750 344C800 342 850 293 875 268.5L900 244L900 601L875 601C850 601 800 601 750 601C700 601 650 601 600 601C550 601 500 601 450 601C400 601 350 601 300 601C250 601 200 601 150 601C100 601 50 601 25 601L0 601Z" fill="#0066FF" stroke-linecap="round" stroke-linejoin="miter"></path></svg>