<svg id="visual" viewBox="0 0 900 600" width="900" height="600" xmlns="http://www.w3.org/2000/svg" xmlns:xlink="http://www.w3.org/1999/xlink" version="1.1"><rect x="0" y="0" width="900" height="600" fill="#002233"></rect><path d="M0 458L25 435.7C50 413.3 100 368.7 150 359C200 349.3 250 374.7 300 384.2C350 393.7 400 387.3 450 387.3C500 387.3 550 393.7 600 384.7C650 375.7 700 351.3 750 337.7C800 324 850 321 875 319.5L900 318L900 601L875 601C850 601 800 601 750 601C700 601 650 601 600 601C550 601 500 601 450 601C400 601 350 601 300 601C250 601 200 601 150 601C100 601 50 601 25 601L0 601Z" fill="#0066FF" stroke-linecap="round" stroke-linejoin="miter"></path></svg>