<svg id="visual" viewBox="0 0 960 540" width="960" height="540" xmlns="http://www.w3.org/2000/svg" xmlns:xlink="http://www.w3.org/1999/xlink" version="1.1"><rect x="0" y="0" width="960" height="540" fill="#2B2E4A"></rect><path d="M0 434L22.8 419.8C45.7 405.7 91.3 377.3 137 364C182.7 350.7 228.3 352.3 274 360C319.7 367.7 365.3 381.3 411.2 384.3C457 387.3 503 379.7 548.8 372.2C594.7 364.7 640.3 357.3 686 373.5C731.7 389.7 777.3 429.3 823 448.3C868.7 467.3 914.3 465.7 937.2 464.8L960 464L960 541L937.2 541C914.3 541 868.7 541 823 541C777.3 541 731.7 541 686 541C640.3 541 594.7 541 548.8 541C503 541 457 541 411.2 541C365.3 541 319.7 541 274 541C228.3 541 182.7 541 137 541C91.3 541 45.7 541 22.8 541L0 541Z" fill="#E84545" stroke-linecap="round" stroke-linejoin="miter"></path></svg>